<?xml version="1.0" standalone="no"?><!DOCTYPE svg PUBLIC "-//W3C//DTD SVG 1.1//EN" "http://www.w3.org/Graphics/SVG/1.1/DTD/svg11.dtd"><svg t="1534482720527" class="icon" style="" viewBox="0 0 1024 1024" version="1.1" xmlns="http://www.w3.org/2000/svg" p-id="6542" xmlns:xlink="http://www.w3.org/1999/xlink" width="128" height="128"><defs><style type="text/css"></style></defs><path d="M835.2 880H188.8c-11.2 0-20.8-9.6-20.8-20.8V164.8c0-11.2 9.6-20.8 20.8-20.8h644.8c11.2 0 20.8 9.6 20.8 20.8v694.4c1.6 11.2-8 20.8-19.2 20.8z m-625.6-41.6h603.2V185.6H209.6v652.8z" fill="#e6e6e6" p-id="6543"></path><path d="M491.2 513.6h41.6v243.2h-41.6z" fill="#e6e6e6" p-id="6544"></path><path d="M512 566.4h110.4V608H512zM512 665.6h110.4v41.6H512z" fill="#e6e6e6" p-id="6545"></path><path d="M512 521.6c-75.2 0-137.6-62.4-137.6-137.6s62.4-137.6 137.6-137.6 137.6 62.4 137.6 137.6-62.4 137.6-137.6 137.6zM512 288c-52.8 0-96 43.2-96 96s43.2 96 96 96 96-43.2 96-96-43.2-96-96-96z" fill="#e6e6e6" p-id="6546"></path></svg>